<svg width="1399" height="959" viewBox="0 0 1399 959" fill="none" xmlns="http://www.w3.org/2000/svg">
<path d="M502.532 798.393C535.949 769.275 586.642 772.761 615.76 806.177C638.46 832.229 641.344 868.781 625.679 897.425C622.948 892.444 619.644 887.679 615.76 883.221C586.642 849.804 535.949 846.319 502.532 875.437C495.168 881.854 489.258 889.319 484.829 897.416C467.094 865.062 473.574 823.626 502.532 798.393Z" fill="#9496FF"/>
<circle cx="838.165" cy="838" r="66.1249" transform="rotate(48.9327 838.165 838)" fill="#9496FF" stroke="#6366F1"/>
<circle cx="704" cy="384" r="70" fill="#9496FF"/>
<path d="M521.457 209.22C541.241 214.521 552.842 235.508 547.318 256.126C541.794 276.743 521.253 289.119 501.468 283.818C481.684 278.516 470.083 257.528 475.607 236.911C481.132 216.294 501.672 203.918 521.457 209.22Z" fill="#6366F1" stroke="#6366F1"/>
<path d="M612.45 250.423C634.715 256.389 647.766 280.006 641.551 303.203C635.335 326.399 612.224 340.326 589.959 334.361C567.694 328.395 554.643 304.777 560.858 281.581C567.074 258.385 590.185 244.457 612.45 250.423Z" fill="#6366F1" stroke="#6366F1"/>
<circle cx="680.56" cy="131.56" r="42" transform="rotate(7.30714 680.56 131.56)" fill="#6366F1" stroke="#6366F1"/>
<path d="M637.671 5.2655C657.939 7.86453 672.263 26.4024 669.664 46.671C667.065 66.9395 648.528 81.2635 628.259 78.6645C607.99 76.0655 593.666 57.5276 596.265 37.259C598.864 16.9905 617.402 2.66646 637.671 5.2655Z" fill="#6366F1" stroke="#6366F1"/>
<circle cx="700.436" cy="247.187" r="49.5" transform="rotate(7.30714 700.436 247.187)" fill="#6366F1" stroke="#6366F1"/>
<path d="M635.453 478.046C676.439 505.812 676.439 566.188 635.453 593.954L289.51 828.311C243.028 859.8 180.25 826.502 180.25 770.357L180.25 301.643C180.25 245.498 243.028 212.2 289.51 243.689L635.453 478.046Z" fill="url(#paint0_linear_2110_91)"/>
<path d="M763.547 478.046C722.561 505.812 722.561 566.188 763.547 593.954L1109.49 828.311C1155.97 859.8 1218.75 826.501 1218.75 770.357L1218.75 301.643C1218.75 245.498 1155.97 212.2 1109.49 243.689L763.547 478.046Z" fill="url(#paint1_linear_2110_91)"/>
<defs>
<linearGradient id="paint0_linear_2110_91" x1="-234" y1="838.5" x2="843" y2="701.5" gradientUnits="userSpaceOnUse">
<stop stop-color="#4F46E5"/>
<stop offset="1" stop-color="#9496FF"/>
</linearGradient>
<linearGradient id="paint1_linear_2110_91" x1="155" y1="573.619" x2="1218" y2="573.619" gradientUnits="userSpaceOnUse">
<stop stop-color="#4F46E5"/>
<stop offset="1" stop-color="#9496FF"/>
</linearGradient>
</defs>
</svg>
