<svg width="1399" height="1103" viewBox="0 0 1399 1103" fill="none" xmlns="http://www.w3.org/2000/svg">
<path d="M539.662 944.821C564.741 922.969 602.784 925.584 624.636 950.662C641.672 970.213 643.835 997.644 632.079 1019.14C630.03 1015.4 627.551 1011.83 624.636 1008.48C602.784 983.403 564.741 980.787 539.662 1002.64C534.136 1007.45 529.7 1013.06 526.376 1019.13C513.066 994.853 517.93 963.757 539.662 944.821Z" fill="black"/>
<circle cx="791.544" cy="974.544" r="50" transform="rotate(48.9327 791.544 974.544)" fill="black"/>
<circle cx="704" cy="528" r="70" fill="#FF0000"/>
<ellipse cx="458.191" cy="314.62" rx="30.8569" ry="32.0828" transform="rotate(15 458.191 314.62)" fill="black"/>
<ellipse cx="531.775" cy="367.499" rx="37.6201" ry="39.1147" transform="rotate(15 531.775 367.499)" fill="black"/>
<ellipse cx="597.507" cy="447.162" rx="42.2697" ry="43.949" transform="rotate(15 597.507 447.162)" fill="black"/>
<path d="M394.815 301.067C383.18 307.04 369.249 302.22 363.7 290.299C358.15 278.379 363.083 263.874 374.718 257.9C386.354 251.927 400.284 256.748 405.834 268.668C411.384 280.588 406.45 295.094 394.815 301.067Z" fill="black"/>
<circle cx="689.705" cy="274.374" r="42.5" transform="rotate(7.30714 689.705 274.374)" fill="black"/>
<circle cx="653.186" cy="173.913" r="37.5" transform="rotate(7.30714 653.186 173.913)" fill="black"/>
<circle cx="606.544" cy="97.3594" r="32.5" transform="rotate(7.30714 606.544 97.3594)" fill="black"/>
<circle cx="700.435" cy="391.187" r="50" transform="rotate(7.30714 700.435 391.187)" fill="black"/>
<path d="M560.549 66.3658C547.907 74.8166 530.807 71.4184 522.356 58.7757C513.905 46.1329 517.303 29.0332 529.946 20.5824C542.589 12.1315 559.689 15.5297 568.139 28.1725C576.59 40.8152 573.192 57.9149 560.549 66.3658Z" fill="black"/>
<path d="M194.25 1019.93L194.25 340.065L696.038 680L194.25 1019.93Z" stroke="black" stroke-width="28"/>
<path d="M1204.75 1019.93L1204.75 340.065L702.962 680L1204.75 1019.93Z" stroke="black" stroke-width="28"/>
</svg>
